<svg width="24" height="25" viewBox="0 0 24 25" fill="none" xmlns="http://www.w3.org/2000/svg">
<path fill-rule="evenodd" clip-rule="evenodd" d="M14.7378 2.94163H8.0848C6.0048 2.93363 4.2998 4.59163 4.2508 6.67063V17.3836C4.2048 19.4966 5.8798 21.2476 7.9928 21.2946C8.0238 21.2946 8.0538 21.2956 8.0848 21.2946H16.0738C18.1678 21.2096 19.8178 19.4796 19.8028 17.3836V8.21763L14.7378 2.94163Z" stroke="white" stroke-linecap="round" stroke-linejoin="round"/>
<path fill-rule="evenodd" clip-rule="evenodd" d="M14.7378 2.94163H8.0848C6.0048 2.93363 4.2998 4.59163 4.2508 6.67063V17.3836C4.2048 19.4966 5.8798 21.2476 7.9928 21.2946C8.0238 21.2946 8.0538 21.2956 8.0848 21.2946H16.0738C18.1678 21.2096 19.8178 19.4796 19.8028 17.3836V8.21763L14.7378 2.94163Z" stroke="black" stroke-opacity="0.8" stroke-linecap="round" stroke-linejoin="round"/>
<path d="M14.4751 2.92984V5.83884C14.4751 7.25884 15.6231 8.40984 17.0431 8.41384H19.7981" stroke="white" stroke-linecap="round" stroke-linejoin="round"/>
<path d="M14.4751 2.92984V5.83884C14.4751 7.25884 15.6231 8.40984 17.0431 8.41384H19.7981" stroke="black" stroke-opacity="0.8" stroke-linecap="round" stroke-linejoin="round"/>
<path d="M14.2881 15.5383H8.88806" stroke="white" stroke-linecap="round" stroke-linejoin="round"/>
<path d="M14.2881 15.5383H8.88806" stroke="black" stroke-opacity="0.8" stroke-linecap="round" stroke-linejoin="round"/>
<path d="M12.2432 11.7858H8.88721" stroke="white" stroke-linecap="round" stroke-linejoin="round"/>
<path d="M12.2432 11.7858H8.88721" stroke="black" stroke-opacity="0.8" stroke-linecap="round" stroke-linejoin="round"/>
</svg>
