<svg width="24" height="25" viewBox="0 0 24 25" fill="none" xmlns="http://www.w3.org/2000/svg">
<path fill-rule="evenodd" clip-rule="evenodd" d="M14.7366 2.94165H8.08465C6.00465 2.93365 4.30065 4.59065 4.25065 6.67065V17.4076C4.20565 19.5096 5.87365 21.2496 7.97465 21.2946C8.01165 21.2946 8.04865 21.2956 8.08465 21.2946H16.0726C18.1626 21.2206 19.8146 19.4986 19.8026 17.4076V8.21765L14.7366 2.94165Z" stroke="white" stroke-linecap="round" stroke-linejoin="round"/>
<path fill-rule="evenodd" clip-rule="evenodd" d="M14.7366 2.94165H8.08465C6.00465 2.93365 4.30065 4.59065 4.25065 6.67065V17.4076C4.20565 19.5096 5.87365 21.2496 7.97465 21.2946C8.01165 21.2946 8.04865 21.2956 8.08465 21.2946H16.0726C18.1626 21.2206 19.8146 19.4986 19.8026 17.4076V8.21765L14.7366 2.94165Z" stroke="black" stroke-opacity="0.8" stroke-linecap="round" stroke-linejoin="round"/>
<path d="M14.475 2.92995V5.83895C14.475 7.25895 15.624 8.40995 17.044 8.41395H19.798" stroke="white" stroke-linecap="round" stroke-linejoin="round"/>
<path d="M14.475 2.92995V5.83895C14.475 7.25895 15.624 8.40995 17.044 8.41395H19.798" stroke="black" stroke-opacity="0.8" stroke-linecap="round" stroke-linejoin="round"/>
<path d="M11.641 10.0887V16.1297" stroke="white" stroke-linecap="round" stroke-linejoin="round"/>
<path d="M11.641 10.0887V16.1297" stroke="black" stroke-opacity="0.8" stroke-linecap="round" stroke-linejoin="round"/>
<path d="M13.9866 12.4441L11.6416 10.0891L9.29663 12.4441" stroke="white" stroke-linecap="round" stroke-linejoin="round"/>
<path d="M13.9866 12.4441L11.6416 10.0891L9.29663 12.4441" stroke="black" stroke-opacity="0.8" stroke-linecap="round" stroke-linejoin="round"/>
</svg>
